<?xml version="1.0" encoding="utf-8"?>
<!-- Generator: Adobe Illustrator 21.0.2, SVG Export Plug-In . SVG Version: 6.00 Build 0)  -->
<svg version="1.1" id="Layer_1" xmlns="http://www.w3.org/2000/svg" xmlns:xlink="http://www.w3.org/1999/xlink" x="0px" y="0px"
	 viewBox="0 0 5201.8 2000" style="enable-background:new 0 0 5201.8 2000;" xml:space="preserve">
<style type="text/css">
	.st0{fill:#282DBF;}
	.st1{fill:#868AFF;}
	.st2{fill:#28ACFF;}
	.st3{fill:#2554E8;}
	.st4{fill:#4725E8;}
	.st5{fill:#7A28FF;}
	.st6{fill:#353CFF;}
</style>
<rect x="978" y="188.5" class="st0" width="3425.6" height="1810.4"/>
<path class="st1" d="M3245.3,1334.6c1.3,3.3,2.8,6.6,4.5,10C3248.3,1341.1,3246.8,1337.8,3245.3,1334.6z M2584.6,1531.5
	c-4.1,3.6-2.3,8.1,1.8,14.1C2585.7,1541,2585.1,1536.3,2584.6,1531.5z M3245.3,1334.6c1.3,3.3,2.8,6.6,4.5,10
	C3248.3,1341.1,3246.8,1337.8,3245.3,1334.6z M-11.4,444.2v1491.7h5240.6V444.2H-11.4z M2579.8,732.2c9.1,6.8,40.2-3.7,63-7.4
	c11.7-1.9,21.2-2,24.3,3c9.2,14.8,45.7,54,57.9,67.3c12.3,13.3,124.5-44,135.2-60.2c10.7-16.2-118.1-47-110.5-67.6
	c7.7-20.7-12.2-16.2-27.6-23.6c-12.5-6,39.5-32.8,73.1-46.4c7.5-3,14-5.4,18.8-6.7c21.5-6.1,46.1,37,67.8,60.6
	c4.6,5,9.1,9.2,13.4,11.7c24.5,14.8,4.6-17.7,16.8-31c12.2-13.3,23,10.3,36.8,39.9c3.6,7.8,8.7,14.5,14.4,20.3
	c15.9,16.4,36.4,26.1,40.9,33.8c4.5,7.7,29.9-32.1,50.3-56.3c7.2-8.5,13.7-15.1,18.5-17c7.4-3,12.4,4.9,16,16.6
	c5.4,17.4,7.8,43.4,10.6,54.9c1.9,7.8,27.2,6.2,57.7,3.6c0.7-0.1,1.4-0.1,2.2-0.2c22.6-2,47.9-4.4,68.5-3.9
	c19.2,0.4,34.4,3.5,39.6,11.8c18.4,29.5,52.1,60.5,64.3,93c3.4,9-6.9,18.6-23.8,29.8c-15.6,10.4-36.6,22.2-57.6,36.5
	c-18.7,12.8-37.3,27.4-51.7,44.8c-8.6,10.4-15.7,21.7-20.4,34.1c-3.3,8.8-5.4,18.1-6,28.1c-3,49.5,48.9,48.8,111,36.1
	c8.5-1.7,17.2-3.7,25.9-5.8c38.4-9.2,78.2-20.9,109.9-26.9c17.1-3.2,31.9-4.8,42.7-3.4c9.8,1.3,15,6.2,16.7,13.7
	c4.1,18-11.5,51.2-30.5,85.8c-28.9,52.4-65.7,108.1-53.8,119.6c10.9,10.5,47.2-12.7,87.4-35.2c20-11.3,41-22.4,60.2-29.1
	c23.6-8.3,44.6-9.9,57.9,3c5.5,5.3,10.1,11.6,13.9,18.5c11.2,20.3,15.5,46.3,15.8,70.4c0.3,32.7-6.9,62.1-14.9,69.1
	c-0.9,0.8-1.7,1.3-2.6,1.5c-8,2.1-27.7-13.5-50.4-25.1c-25.1-12.9-53.7-20.9-73.8,5.5c-38.3,50.2,98.1,105.2,111.9,120
	c13.8,14.8-9.2,16.2-16.9,39.9c-1.2,3.9-0.8,8,0.7,12.2c0,0,0,0,0,0c0.7,1.9,1.5,3.7,2.5,5.6c9.7,18.4,32.8,38.6,18,53.1
	c-1.6,1.5-3.5,3-6,4.4c-32.6,18.6-79.6-59.8-102-80.8c-0.7-0.7-1.4-1.3-2.1-1.9c-6.4-5.3-19-2.5-34.5,3.9c-12,5-25.7,12.2-39.6,19.6
	c-2.2,1.2-4.4,2.3-6.6,3.5c-26.3,14-52.7,27.6-69.3,27.6c-7,0-15.1-7.7-24-20.2c-11.9-16.9-25-42.5-37.9-70.1
	c-5.4-11.6-10.8-23.5-16.1-35.2v0c-5.6-12.4-11-24.6-16.1-36c0,0,0-0.1,0-0.1c-1.5-3.4-3.1-6.7-4.5-10c-2.5-5.5-5-10.7-7.3-15.6
	c-11.9-24.8-21.5-41.4-26.9-40.1c-19.9,4.4-1.5-19.2-35.2-23.6c-9.7-1.3-15.1,18.4-18.1,48.1c-1.9,18.6-2.9,41.1-3.5,64.7
	c-0.2,9.4-0.4,19-0.5,28.6c-0.2,14.3-0.3,28.7-0.4,42.5c-0.4,46.6-0.9,87.3-5.2,101c-12.2,38.4-68.9,87.1-73.5,100.4
	c-4.6,13.3-21.4,54.6-26,75.3c-4.6,20.7,35.2,42.8,23,67.9c-12.2,25.1-55.1,17.7-65.8,0c-2.4-4-5.1-10-7.8-17
	c-9.6-24.1-20.6-59.7-28.9-64.2c-1.6-0.9-2.9-2.6-4-4.9c0,0,0,0,0,0c-0.8-1.5-1.4-3.3-2-5.3c-1-3.2-1.9-7.1-2.8-11.2
	c-3.5-16.5-7-38.6-17.1-53.8c-5-7.4-13.9-10.2-24.4-10.9c-25.1-1.7-58.9,8.6-67.5-3.9c-10.6-15.3-42.7-41.5-74.9-57
	c-0.4-0.2-0.8-0.4-1.2-0.6c-4.8-2.2-9.5-4.3-14.2-5.9c-3.7-1.3-6.5-4.5-8.7-9.2c-19.4-41.9,16.4-203.6-11.2-211.6
	c-11-3.2-23.2,14.9-34.7,40.2c-20.6,45.3-39.1,114.1-45,127.4c-1.4,3.1-3.4,5.9-6,8.3c-2,1.9-4.2,3.6-6.8,5.1
	c-9.1,5.5-21.3,8.9-33.5,12.1c-8.5,2.2-16.9,4.3-24.2,7c-2.7,1-4.6,2-6,3.2c-4.1,3.6-2.3,8.1,1.8,14.1c6.9,9.9,20.5,23.6,25.6,43.3
	c0.5,2,0.9,3.8,1.1,5.5c1.5,13.8-6.6,20.2-17.4,25.4c-12.3,5.9-28,10.3-37.2,22.2c-18.4,23.6-39.8,57.6-56.7,56.1
	c-16.9-1.5-36.8,38.4-65.9,48.7c-6.6,2.4-14.8,2.5-23.7,1.2c-9.6-1.4-20.1-4.4-30.6-8.1c-22.6-7.9-45.3-18.8-59-22.7
	c-26-7.4-82.7,54.7-114.9,48.7c-32.2-5.9-114.9,32.5-130.2,29.5c-15.3-3-44.4-31-50.5-72.4c-0.3-2.4-0.8-4.6-1.4-6.8
	c-5.2-18.5-19.3-30.6-32.6-41c-12.6-9.8-24.4-18.2-27.2-29c-6.1-23.6-30.6-7.4-49-28.1c-18.4-20.7,24.5-60.6,27.6-75.3
	c3.1-14.8-33.7-28.1-29.1-63.5c4-30.6-36.7-44.7-79.4-48c-6.7-0.5-13.5-0.8-20.2-0.8c-15,0-28,1.5-39.5,4.1
	c-12.5,2.8-23.2,6.8-32.5,11.3c-9.9,4.9-18.4,10.3-26.1,15.6c-7.1,4.9-14.1,6.4-21.4,6.8c-10.4,0.6-21.2-1.1-33.2,1.7
	c-5.1,1.2-10.3,3.1-15.9,6.4c-27.6,16.2-4.6,54.6,1.5,75.3c6.1,20.7-58.2,47.3-75,59.1c-11.2,7.9-46.4,11.8-72.1,6.6
	c-12.8-2.6-23.4-7.6-27.4-15.4c-12.2-23.6,77.9-64.9,76.6-76.8v-0.1c-1.5-11.8,26-32.5,26-47.3c0-13.4-29-28-36.7-42.8
	c0-0.1-0.1-0.1-0.1-0.2c-0.2-0.4-0.4-0.8-0.6-1.3c-0.4-1-0.7-2-0.9-3c-0.7-3.7,4.2-6.4,12.3-8.4c27.3-7,91.2-7.5,99.5-21.2
	c5.7-9.4,4.1-16.3,1.2-23.4c-0.3-0.7-0.6-1.4-0.8-2c-2.3-5.6-5-11.5-5-18.9c0-9.3,42.5-14.7,86.8-27.7c40.4-11.9,82.2-30,94.6-63.1
	c15.4-41-138.5-164.7-69.6-167.6c68.9-2.9,95-50.2,101.1-65c6.1-14.8,59.7-42.8,88.8-60.5c29.1-17.7,127.3,13.6,138,12
	c48.5-7.3,52.1-34,52.1-45.8c0-11.8-170.2-77-173.2-87.4c-3.1-10.3,89.4-1.5,98.6-7.4c9.2-5.9-54.2-67.9-52.7-73.8
	c1.5-5.9,41.3-1.5,41.3-1.5s9.2,5.9,50.5,0c41.4-5.9,10.7,4.4,19.9,36.9c9.2,32.4,77.9-10.2,94.9,4.4c0,0,0.1,0,0.1,0.1
	c16.8,14.8,50.5-39.9,59.7-29.5c2.6,2.9,7.7,0.1,14.4-5.6c17.2-14.7,45.1-48.5,68.3-54.9c32.2-8.9-69.4,514.7,27.6,514.7
	c76.4,0,35.2-508.8,45.9-513.2s24.5,11.8,56.7,32.5c28.2,18.1,65.9-20.5,84-23.3C2576,730.6,2578.1,730.9,2579.8,732.2z
	 M3245.3,1334.6c1.3,3.3,2.8,6.6,4.5,10C3248.3,1341.1,3246.8,1337.8,3245.3,1334.6z"/>
<path class="st2" d="M-12.1,389.6v1486.4h0.8v5.4h5084.8V389.6H-12.1z M1939.8,1741.1c-0.7,0-1.4,0-2-0.2
	c-10.1-1.9-26.1-14.8-37.6-35.3c-5.8-10.3-10.4-22.5-12.6-36.2c-0.1-0.3-0.1-0.6-0.1-0.9c-4-27.2-26.5-41.7-43.2-55.1
	c-8.6-6.9-15.7-13.6-17.7-21.7c-2.7-10.3-8.8-13-16.4-14.5c-9.8-2-22-1.9-32.3-13.5c-7-7.9-5.1-18.6,0.1-29.6
	c8.4-17.8,25.4-36.6,27.3-45.7c2.8-13.3-26.6-25.4-29.2-53.5c-0.3-3.1-0.2-6.4,0.2-10c2.3-17.9-10.6-30.2-30.3-38
	c-19.2-7.5-44.7-10.8-68.8-10.8c-9.4,0-18,0.6-25.9,1.7c-1.5,0.2-3,0.4-4.5,0.7c-30.6,5-50.7,17.3-67.1,28.6
	c-21.3,14.8-42.7-1.5-70.1,14.8c-9.3,5.5-12.9,13.7-13.2,22.8c-0.2,4.9,0.6,10.2,1.9,15.4c3.3,13.5,9.9,27.3,12.8,37.1
	c6.1,20.7-57.9,47.3-74.7,59.1c-5.8,4.1-17.9,7.1-31.8,8.3c-2.6,0.2-5.3,0.4-8.1,0.5c-16.1,0.6-33.4-1.2-45.4-6.4
	c-6.4-2.8-11.3-6.5-13.8-11.3c-4-7.8,3-17.4,14.2-27.4c0,0,0,0,0,0c6.1-5.4,13.5-11,21-16.3c6.8-4.8,13.6-9.4,19.7-13.6
	c12.4-8.6,21.8-15.7,21.3-19.6c-1.5-11.8,25.9-32.5,25.9-47.3c0-12.7-25.9-26.5-35.1-40.4c-1.5-2.3-2.5-4.5-3-6.8
	c-0.7-3.5,3.7-6.1,11.1-8.1c5.1-1.4,11.5-2.5,18.7-3.5c14.3-2,31.6-3.6,46.6-5.9c17-2.6,31.1-6,34.7-12c4.8-8,4.3-14.3,2.4-20.3
	c-2.4-7.3-6.9-14.3-6.9-24c0-17.7,154.6-21.4,180.5-90.8c15.3-41-137.8-164.7-69.2-167.6c68.6-3,94.5-50.2,100.6-65
	c6.1-14.8,59.4-42.8,88.4-60.5c28.9-17.7,126.6,13.6,137.3,12c48.3-7.3,51.8-34,51.8-45.8c0-11.8-169.3-77-172.3-87.3
	c-3-10.3,89-1.5,98.1-7.4c9.1-5.9-53.9-67.9-52.4-73.8c1.5-5.9,41.1-1.5,41.1-1.5s9.1,5.9,50.3,0c41.1-5.9,10.7,4.4,19.8,36.9
	c9.1,32.5,77.7-10.3,94.5,4.4s50.3-39.9,59.4-29.5c9.1,10.3,50.3-51.7,82.3-60.6c11.4-3.2,5.9,60.8-1.4,144.7
	c-13.4,152.3-33.3,370,28.9,370c53.8,0,49-254.6,45.4-405.2c-1.5-62.3-2.8-106.8,0.3-108.1c10.7-4.4,24.4,11.8,56.4,32.5
	c32,20.7,76.2-32.5,89.9-22.1c13.7,10.3,77.7-19.2,86.8-4.4c7.5,12.1,33.2,40.6,49,57.9c3.5,3.8,6.5,7,8.7,9.4
	c5.6,6.1,32.4-2.8,60.7-15.7c33-15.1,68.1-35.8,73.9-44.6c10.7-16.2-117.5-46.9-109.9-67.6c7.6-20.7-12.2-16.2-27.4-23.6
	c-15.2-7.4,65.5-45.8,91.4-53.2c25.9-7.4,56.4,57.6,80.8,72.4c24.4,14.8,4.6-17.7,16.8-31c9.2-10.1,17.6,1.1,27.1,20
	c3,6,6.1,12.8,9.4,19.9c13.7,29.5,48.9,43.7,55,54.1c2.5,4.2,11.3-6,22.1-20c15.6-20.4,35.5-48.9,46.3-53.2
	c18.3-7.4,21.9,52.2,26.4,71.5c0.7,3.1,5.2,4.8,12.2,5.4c18.5,1.7,54.7-3.3,87.6-5.2c12.3-0.7,24.2-1,34.5-0.4
	c16,1,28.2,4.2,32.8,11.5c9.4,15.3,22.9,30.9,35.5,47c0.6,0.8,1.2,1.6,1.8,2.3c11,14.3,21.1,28.9,26.7,43.7
	c3.5,9.4-7.9,19.4-26,31.3c-18.4,12.1-43.9,26.3-67.6,43.9c-33,24.5-62.5,55.9-65.1,98c-3.6,60.1,73.4,46.2,151.3,26.5
	c25.3-6.4,50.6-13.4,73.4-18.7c25.9-6,48.4-9.8,63.4-7.9c29.8,3.9,16.6,41.6-5.9,84.9c-7.5,14.4-16,29.4-24.4,44
	c-16.5,28.8-32.1,55.9-37.4,73.2c-2.5,8.1-2.7,14,0.4,17c22.2,21.5,150.9-98.3,200.2-64.9c1.5,1,2.9,2.2,4.3,3.5
	c19.8,19.2,27.8,50.8,29.3,80.8c1.9,39.4-7.6,76.2-17.1,78.7c-16.8,4.4-85.4-69.8-123.5-19.6c-35.4,46.7,79.6,97.6,106.8,116.3
	c2,1.4,3.6,2.6,4.5,3.7c3.8,4,4.8,7.1,4.1,9.9c-1.8,7.4-15.3,12.8-20.8,30c-2.5,7.6,1.7,16.1,7.3,24.8c5.8,8.9,13.2,18,16.6,26.4
	c1,2.3,1.6,4.7,1.9,6.9c0.7,6.4-1.9,12.3-10.6,17.3c-6.9,3.9-14.5,3.5-22.3,0.2c-2.8-1.2-5.7-2.8-8.6-4.7c-6-4-12.1-9.3-18.2-15.3
	c-21.8-21.8-42.5-52.9-54.5-62.9c-7.2-6-22.2-1.7-40.4,6.6c-7.8,3.5-16.2,7.8-24.7,12.4c-19.9,10.5-41.1,22.4-58.9,29.4
	c-9.7,3.8-18.4,6.3-25.3,6.3c-7.7,0-17-9.6-27-24.8c-5.6-8.5-11.4-18.8-17.3-30.1c-5.3-10.1-10.6-21.1-16-32.5
	c-6.9-14.8-13.8-30.1-20.5-45.1c-22.7-51-42.7-96.8-51.6-94.8c-19.8,4.4-1.5-19.2-35-23.6c-19.6-2.6-21.6,82.5-22.3,161.1
	c-0.5,55.6-0.4,107.9-5.4,123.8c-12.2,38.4-68.6,87.1-73.1,100.4c-2.1,6-6.6,17.6-11.3,30.5c-3.4,9.3-7,19.3-9.9,28.2
	c-2,6.2-3.6,12-4.7,16.6c-4.6,20.7,35,42.8,22.8,67.9c-12.2,25.1-54.8,17.7-65.5,0c-10.7-17.7-25.9-75.3-36.6-81.2
	c-10.1-5.6-9.3-45.4-23.3-71c-0.8-1.5-1.7-2.9-2.6-4.3c-2.9-4.3-7.1-7-12.1-8.7c-4.1-1.4-8.8-2-13.8-2.3
	c-24.8-1.1-57.1,8.4-65.5-3.8c-6.7-9.7-22-23.8-40.6-36.8c-5.9-4.1-12.1-8.1-18.4-11.8c-5.8-3.4-11.6-6.5-17.5-9.2
	c-4.5-2.1-8.9-4-13.3-5.6c-1.8-0.7-3.5-1.8-4.9-3.4c-1.1-1.2-2-2.6-2.9-4.2c-5.2-9.7-6.9-27.2-6.8-48.2c0.1-63.6,15.8-158.9-5.1-165
	c-28.2-8.2-64.2,124.4-76.7,160.8c-1,3-1.9,5.3-2.6,6.8c-9.1,20.7-45.7,23.6-70.1,32.5c-24.4,8.9,12.2,25.1,21.3,60.6
	c1.2,4.6,1.5,8.4,1,11.8c-2.7,21.2-34,20.9-51.1,37.7c-1.2,1.1-2.2,2.4-3.3,3.7c-18.3,23.6-39.6,57.6-56.4,56.1
	c-16.8-1.5-36.6,38.4-65.5,48.7c-29,10.3-86.8-22.2-112.7-29.5c-25.9-7.4-82.3,54.7-114.3,48.7c-10.1-1.9-25.3,0.7-41.9,5
	C1991.9,1725.2,1952.8,1741.2,1939.8,1741.1z"/>
<path class="st3" d="M1515.1,1326.3c-7.9,0.4-16.2,2.3-25.3,9.3c-7.5,5.8-10.9,13.9-11.8,23c17-2.6,31.1-6,34.7-12
	C1517.6,1338.6,1517.1,1332.3,1515.1,1326.3z M1443,1479.1c1-0.1,2-0.1,3-0.1c4.1-3.7,8.4-7.4,13-11.1c0.1-0.2,0.2-0.4,0.3-0.5
	C1453.8,1471.5,1448.2,1475.4,1443,1479.1z M1515.1,1326.3c-7.9,0.4-16.2,2.3-25.3,9.3c-7.5,5.8-10.9,13.9-11.8,23
	c17-2.6,31.1-6,34.7-12C1517.6,1338.6,1517.1,1332.3,1515.1,1326.3z M-12.1,121.1v1754.9h4745.8V121.1H-12.1z M2781.6,1687.5
	c-0.2,3.1-0.8,6.3-2,9.5c-3.9,10.4-11.2,16-19.4,18.1c-15.3,3.9-33.9-4.5-40.2-18.1c-1-2.1-2-4.6-3-7.5c-3-8.3-6.2-19.5-9.5-31.2
	c-7.2-25.3-14.8-52.7-20.8-56.9c-8.9-6.3-8.5-50.3-19.9-80.4c-1.1-2.9-2.3-5.6-3.6-8.2c-2-3.9-4.8-6.7-8.1-8.7
	c-6.5-4-15.2-4.6-24.3-4.2c-5.8,0.3-11.7,1-17.4,1.7c-13.1,1.5-25.2,2.6-31.2-3.2c-0.1-0.1-0.2-0.2-0.4-0.4
	c-0.7-0.8-1.3-1.6-1.9-2.6c-5-9.4-15.5-22.5-28.5-35.3c-7-6.9-14.8-13.8-22.8-20.1c-2.5-2-5.1-3.9-7.6-5.7
	c-7.6-5.4-15.3-10.1-22.9-13.6c-33.3-15.6-12.5-133.8-40.2-144.2c-27.7-10.4-41.6,57.3-49.9,81.7c-8.3,24.3-41.6,27.8-63.8,38.2
	c-22.2,10.4,11.1,29.5,19.4,71.2s-31.9,34.8-48.5,62.5c-16.6,27.8-36.1,67.8-51.3,66c-15.3-1.7-33.3,45.2-59.6,57.3
	c-26.4,12.2-79.1-26.1-102.6-34.8c-23.6-8.7-74.9,64.3-104,57.3c-1.4-0.3-2.9-0.5-4.5-0.7c-20.9-1.4-57.9,16-84.4,26.9
	c-2.9,1.2-5.6,2.3-8.2,3.3c-9.7,3.8-17.2,6.1-20.8,5.2c-13.9-3.5-40.2-36.5-45.8-85.1c-2.5-21.6-12.6-36.3-23.5-48.4
	c-13.8-15.3-28.9-26.4-31.9-41.9c-0.1-0.4-0.2-0.8-0.3-1.2c-6-26-27.7-7.8-44.1-31.8c-9.9-14.4-0.3-36.7,9.8-56.2
	c6.9-13.4,14-25.4,15.2-32.4c1.3-8.3-5.6-16.2-12.7-26.8c-6-8.8-12.1-19.5-13.6-33.9c-0.5-4.3-0.5-9,0-14c0.3-3.5,0.3-6.7-0.1-9.8
	c-4-34.4-49.4-47.5-90.1-47.5c-44.4,0-69.3,19.1-88.8,36.5c-12.4,11.1-24.7,7.3-38.5,8.1c-7.9,0.4-16.2,2.3-25.3,9.3
	c-7.5,5.8-10.9,13.9-11.8,23c-2.1,21.4,9.3,48.6,13.1,65.6c3.1,13.6-13.8,29.4-31.9,43.1c-5.5,4.1-11.1,8.1-16.3,11.8
	c-4.8,3.3-9.2,6.4-12.9,9.1h0c-2.8,2-5.1,3.9-6.9,5.5c-4.1,3.8-11.8,6.7-20.9,8.6c-9,1.8-19.4,2.4-29.5,1.6
	c-3.2-0.3-6.3-0.7-9.4-1.2c-11.6-2.2-21.8-6.7-27.4-14.2c-1.2-1.6-2.2-3.3-2.9-5.2c-0.5-1.4-0.9-2.8-1-4.3
	c-2.2-28.3,71.6-72.8,70.3-86.1c-0.3-2.9,0.6-6.3,2.1-9.9c1.9-4.6,5-9.7,8.2-14.9c6.4-10.5,13.3-21.6,13.3-30.8
	c0-17.4-31.9-36.5-34.7-55.6c-2.8-19.1,13.9-27.8,23.6-48.6c5.9-12.6,3.1-21.4,0-31c-2-6.3-4.2-12.9-4.2-21.1
	c0-14.1,55.5-65.2,102.3-103.5c22.6-18.5,43.2-33.9,54.4-40.7c18.6-11.2,5.6-51.5-0.7-86.9c-5.5-30.5-6-57.4,22.9-59
	c6-0.3,11.7-1.2,17-2.4c11-2.5,20.6-6.8,28.8-12.1c22.1-14.2,34.8-35.7,41.3-50.5c1.7-3.9,3-7.4,3.9-10.1c0.1-0.5,0.3-0.9,0.4-1.3
	c2.9-9.2,18-22.8,35.4-36.7c15.4-12.3,32.7-24.8,45.1-34.6c2.5-2,5-4.2,7.2-6.5c19.7-19.7,30.2-48.5,34.7-61.6
	c0.4-1.2,0.8-2.2,1.1-3.1c2.8-8.2,23.1-23.4,36.2-36.7c0,0,0,0,0,0c6.4-6.5,11-12.6,11-17.1c0-2.8-3-4.8-7.9-6.1
	c-8.7-2.4-23.4-2.9-36.7-3.8c-15.4-1-29.1-2.4-30.3-7.5c-1.3-5.6,5.9-16.6,14.8-27.5c10.6-13,23.7-26,28.2-29.8
	c8.3-7-2.8-31.3-1.4-38.2c1.4-7,37.4-1.7,37.4-1.7s8,6.7,43.8,0.3c0.6-0.1,1.3-0.2,1.9-0.3c4.6-0.8,8.1-1.4,11-1.7
	c9.5-0.9,10.1,1.6,8.7,8c-1.5,7.2-5.5,19.3-1.6,37.2c1.9,8.5,6.4,12.6,12.4,14.1c19,4.6,53.4-16.9,68.9-11.8c1.8,0.6,3.4,1.6,4.7,3
	c4.5,5.1,10.3,3.2,16.4-1.8c14.8-12,31.8-41.5,37.7-32.9c8.3,12.2,45.8-60.8,74.9-71.2c2.3-0.8,4.4-1.4,6.2-1.8
	c2.9-0.6,5.2-0.6,6.8,0c1,0.3,1.9,0.9,2.5,1.6c5.7,6.4-0.3,26.3,9.4,47.1c13.1,28,30-32.9,40-43.8c0.6-0.6,1.1-1.1,1.6-1.3
	c7.3-3.9,16.2,6,32.6,21.5c5.4,5.1,11.5,10.8,18.7,16.8c18.6,15.5,41.7-4.3,59.2-17.6c9.9-7.5,18.1-12.9,22.6-8.5
	c7.7,7.5,32.8-2.9,52.9-7.8c12.4-3.1,22.9-4.1,26.1,2.6c8.3,17.4,51.3,1.7,62.4,17.4c6.7,9.4,20.9-8.2,33.2-27.8
	c0.8-1.3,1.7-2.7,2.5-4c7.2-11.8,13.5-23.8,17-30.7c8.7-17.2-36.4-4.9-40.5-19.9c-0.5-1.7-0.4-3.7,0.3-6.1c0.9-3.2,1.4-5.9,1.5-8.2
	c0.7-15-14.4-12-26.5-19.6c-13.9-8.7,59.6-53.9,83.2-62.6c7.3-2.7,15,2.8,22.8,12.1c4.2,5.1,8.5,11.3,12.8,18
	c5.2,8.1,10.3,16.9,15.3,25.1c4.1,6.7,8.1,13,12,18.3c3.6,5,7.2,9,10.6,11.7c12.3,9.6,12.2,2.2,11.6-9.1c-0.5-9-1.3-20.5,3.6-27.4
	c7.7-10.8,14.7-0.8,22.4,17.9c3.4,8.3,7,18.3,10.9,29c0.1,0.3,0.2,0.6,0.3,0.9c7.8,20,24.4,9,37.5,0c8.5-5.8,15.5-10.9,17.7-6.1
	c5.6,12.2,40.2-8.7,56.9-17.4c16-8.4,26.9,2.6,31.4,23.5c0.2,0.8,0.4,1.7,0.5,2.6c3.3,17.9,81.6,30.4,122.2,52.1
	c10.6,5.7,18.6,12,22.1,19.2c16.6,34.8,47.1,71.2,58.2,109.5c9.2,31.7-31.3,33.5-48.5,101.8c-1.3,5.3-2.6,11.1-3.6,17.3
	c-1.7,10-2.9,21.2-3.4,33.8c-4.5,97.3,70.5,114.5,132.3,123.1c14.3,2,27.9,3.5,39.7,5.5c62.4,10.4,29.1,50.4,49.9,76.5
	c6,7.5,11.4,8.9,17,8.5c13-1.1,27.3-12.5,53,15.4c2,2.2,4.1,4.6,6.3,7.4c14.7,18.4,22.3,46.5,25.3,75.5c1.3,12.8,1.8,25.8,1.5,38.2
	c-0.8,38.8-8.2,71.4-15.7,74c-8,2.8-13.4-3.2-21.7-0.8c-7.5,2.2-17.4,11-33.8,39c-34.7,59.1,31.9,62.5,44.4,79.9
	c12.5,17.4-8.3,19.1-15.2,46.9c-0.3,1.1-0.5,2.2-0.6,3.3c-0.5,5.2,0.8,10.8,3.1,16.5c1.3,3.3,2.8,6.6,4.5,10c0,0,0,0,0,0.1
	c6.2,12.2,14.2,24.7,16.1,36v0c1.4,8.5-0.6,16.3-9.3,22.8c-23.9,17.7-56.2-39-78.4-74.5c-6.2-9.9-11.6-18.2-15.9-22.8
	c-1.3-1.4-2.9-2.3-4.7-2.8c-8.9-2.5-23.7,5-40.5,15.7c-31.3,20-69.7,51.4-90.8,51.4c-5.7,0-11.8-3.2-18.2-8.7
	c-32.1-27.4-69.4-110.3-84.5-106c-18,5.2-1.4-22.6-31.9-27.8c-30.5-5.2-31.9,137.3-43,182.4c-11.1,45.2-62.4,102.5-66.6,118.1
	c-1.5,5.5-4.3,15.1-7.5,26.2c0,0.1-0.1,0.2-0.1,0.3c-0.6,2.2-1.3,4.4-1.9,6.7c-5.5,19.2-11.6,41.4-14,55.4
	C2755.1,1638.7,2783.3,1661.8,2781.6,1687.5z M1515.1,1326.3c-7.9,0.4-16.2,2.3-25.3,9.3c-7.5,5.8-10.9,13.9-11.8,23
	c17-2.6,31.1-6,34.7-12C1517.6,1338.6,1517.1,1332.3,1515.1,1326.3z"/>
<path class="st4" d="M2673.7,292.5c-7-0.8-15.4-1.1-22.2-2.6c3.6,5,7.2,9,10.6,11.7C2674.4,311.2,2674.3,303.8,2673.7,292.5z
	 M2624.1,246.5c5.2,8.1,10.3,16.9,15.3,25.1C2644.1,252.8,2635.3,250,2624.1,246.5z M1488,1402.3c-1,0-2,0-3,0.1
	c-9.5,0.4-19.5,2.5-30.5,10.9c-0.1,0.1-0.2,0.2-0.4,0.3c-4.4,3.4-7.6,7.5-9.8,12c-7.5,15.3-4.3,36.1,0.8,55.8
	c21.9-24.5,46.8-46.9,45.4-56.6c-0.9-6.2,1.6-13.9,5.3-22.4C1493.2,1402.4,1490.6,1402.3,1488,1402.3z M464.1-40.4v1962.7h4839.1
	V-40.4H464.1z M2924.4,1859.3c-4.6-3.6-8.3-8-10.6-13.1c-4.1-8.8-8.7-24.5-13.6-41.6c-0.5-1.8-1-3.6-1.5-5.4
	c-8.5-30-17.4-62.4-24.4-67.5c-10.5-7.6-10.1-60.3-23.7-96.4c-1.3-3.4-2.7-6.7-4.3-9.7c-4.8-9.3-13-13.4-22.7-14.9
	c-14-2.1-31.3,1.3-46,2.5c-7,0.6-13.4,0.7-18.7-0.5c-5.1-1.2-9.1-3.6-11.4-7.9c-12.7-24-54.2-67.2-92.5-87.2
	c-1.5-0.8-3.1-1.6-4.6-2.3c-12.5-5.9-18.6-24.1-22.1-46.5c-0.7-4.5-1.3-9.2-1.8-14.1c-1.2-10.7-2-21.9-2.8-33c0-0.2,0-0.3,0-0.5
	c-2-27.2-3.9-53.3-10.9-67.8c-2.6-5.4-5.9-9.1-10.1-10.8c-13.1-5-23.6,4.9-32.2,20.5c-12.8,23.5-21.1,59.7-27.1,77.2
	c-4.8,14.3-16.8,22.6-30.9,28.8c-14.6,6.4-31.4,10.7-44.8,17c-10.4,4.9-10.5,11.5-6.2,20.7c6.5,14.1,23.3,34.4,29.3,64.6
	c9.9,49.9-37.9,41.6-57.6,74.9c-3.2,5.3-6.4,11-9.7,16.8c-17.3,30.5-36,64-51.2,62.2c-5.3-0.6-11,3.8-17.1,10.8
	c-14.5,16.6-31.7,47.6-53.7,57.8c-12.7,5.9-30.6,1.9-49.3-5.8c-27.2-11.1-55.9-29.7-72.5-35.8c-17.2-6.4-46.8,24.1-75.1,46.7
	c-2.3,1.9-4.6,3.7-6.9,5.4c-15.3,11.4-29.8,19.4-41.4,16.6c-1.9-0.5-4.1-0.7-6.3-0.8c-29.9-1.3-85.8,28.2-115.9,38.9
	c-8.1,2.9-14.4,4.4-17.7,3.6c-2.2-0.6-4.7-1.8-7.4-3.6c-11.6-7.9-26.5-27.2-36.6-54.6c-0.7-1.8-1.3-3.5-1.9-5.4
	c-3.9-11.6-6.9-24.4-8.4-38.3c-6.6-58.2-59.2-74.9-65.8-108.2c-6.6-33.3-32.9-10.4-52.7-39.5c-19.8-29.1,26.3-85.3,29.6-106.1
	c3.3-20.8-36.2-39.5-31.3-89.4c1-9.8-0.5-18.3-3.9-25.8c-14-30.8-60.7-42.9-103-42.9c-18.8,0-34.7,2.9-48.4,7.7
	c-1.5,0.5-3,1.1-4.5,1.6c-0.1,0-0.2,0.1-0.2,0.1c-16.7,6.5-30,15.6-41.5,25.1c-3.7,3.1-7.2,6.2-10.6,9.2c-11.1,10-22.2,9.9-34.1,9.7
	c-2.6-0.1-5.1-0.1-7.8-0.1c-1,0-2,0-3,0.1c-9.5,0.4-19.5,2.5-30.5,10.9c-0.1,0.1-0.2,0.2-0.4,0.3c-4.4,3.4-7.6,7.5-9.8,12
	c-7.5,15.3-4.3,36.1,0.8,55.8c0.6,2.2,1.2,4.5,1.8,6.7c3.3,11.8,6.9,22.8,8.9,31.6c3,13.4-9.9,28.5-26.6,42.6
	c-19.6,16.6-44.3,31.7-54.1,40.7c-6.6,6-20.8,10.4-36.8,12c-28.1,2.7-61.8-3.3-70.2-24.5c-13.2-33.3,83.9-91.5,82.3-108.2
	c-1.6-16.6,28-45.8,28-66.6c0-1.3-0.1-2.6-0.4-3.8c-0.6-3.1-2-6.3-3.9-9.5c-10-17.1-34.2-35.2-36.8-53.3
	c-3.3-22.9,16.4-33.3,28-58.2s-4.9-37.4-4.9-62.4c0-14.4,48-61.2,96.6-103c35.8-30.9,71.9-59,89.3-69.6c1-0.6,1.9-1.3,2.8-2
	c1-0.9,1.9-1.8,2.7-2.9c7.9-10.3,6.8-28.9,3.3-50c-8.6-50.9-31.9-117,17.6-119.8c13.5-0.8,25.5-3.6,36.2-7.9
	c19.4-7.8,34.2-20.5,45.2-33.8c11.6-14.1,19.1-28.9,23.5-39.8c1.6-4,2.8-7.4,3.7-10.1c3.2-10.2,18.9-25,37.6-40.4
	c19.3-15.8,42-32.2,57.8-44.9c14.9-11.9,26.1-28.6,34.2-44.3c8.9-17.2,14.2-33.4,16.8-41c1.7-5.1,9.1-12.4,17.9-20.6
	c14.6-13.4,33.1-29,37.2-39.9c0,0,0,0,0,0c0.5-1.4,0.8-2.8,0.8-4c0-2.9-2.6-5-6.8-6.5c-8.7-3.1-24.5-4-39.9-4.9
	c-20.6-1.2-40.6-2.5-42.2-9.4c-1.7-7.6,9.5-23.6,22-38.3c11.6-13.7,24.3-26.3,29-30.3c9.9-8.3-3.3-37.4-1.6-45.8
	c1.6-8.3,44.4-2.1,44.4-2.1s9.9,8.3,54.3,0c3.2-0.6,6-1.1,8.5-1.4c0.2,0,0.4-0.1,0.6-0.1c19.4-2.8,15.4,2.6,12.3,17.7
	c-1.8,8.6-3.3,20.5,0,35.8c1.7,7.7,5.2,12.4,9.9,15c16.1,8.7,46.6-6.9,68.9-11.8c8.7-2,16.2-2.2,21.1,1.2c0.8,0.5,1.5,1.2,2.1,1.9
	c18.1,20.8,54.3-56.2,64.2-41.6c7.4,10.9,34.2-35.5,61.8-64.6c0.5-0.5,1-1.1,1.6-1.6c8.7-9,17.4-16.1,25.5-19
	c21.4-7.7,21.3,2.1,22.1,19c0.1,1.6,0.1,3.2,0.2,4.9c0.6,9.5,1.9,20.8,7.3,32.3c8.3,17.9,17.9,5.4,26.9-12.2
	c4.1-8.1,8.1-17.3,11.8-25c4.1-8.5,7.7-15.3,10.7-16.9c7.2-3.9,15.7,3.6,29.6,16.9c7.1,6.8,15.5,15.1,25.9,24.2
	c1.7,1.5,3.5,3.1,5.4,4.6c22,18.6,49.4-5.1,70.1-20.9c4-3,7.7-5.8,11.1-7.9c6.8-4.2,12.3-5.9,15.9-2.4c1.1,1.1,2.5,1.9,4.2,2.4
	c3.7,1.1,8.8,1,14.5,0c26.1-4.3,67.6-24.4,75.1-8.6c0.9,1.8,2,3.3,3.5,4.6c2,1.8,4.6,3.1,7.5,4c18.7,6,52.6-2.6,63,12.2
	c5.3,7.6,14.7,0.5,24.8-12.2c12.3-15.5,25.6-39.3,33.6-54.6c1.6-3.1,3-5.8,4.1-8.1c0.7-1.5,1.2-2.8,1.3-3.9
	c0.7-5.6-5.8-7.5-14.2-8.5c-7-0.8-15.4-1.1-22.2-2.6c-9-2-15.4-6-12.6-16.2c0.2-0.7,0.4-1.4,0.5-2c4.7-18.8-4.1-21.6-15.3-25.1
	c-4.8-1.5-10-3.1-14.8-6.1c-3.5-2.2-2.3-6.4,2.1-11.8c9.8-12,35.4-29.8,58.8-43.6c0.1,0,0.2-0.1,0.2-0.1c15-8.8,29.1-16.1,37.6-19.3
	c5.8-2.1,11.7,0,17.8,5c23.4,19.2,48.5,80.4,69.4,96.9c26.3,20.8,4.9-25,18.1-43.7c13.2-18.7,24.7,14.6,39.5,56.2
	c14.8,41.6,59.2-20.8,65.8-6.2c6.6,14.6,47.7-10.4,67.5-20.8c19.7-10.4,32.9,4.2,37.8,31.2c1.9,10.5,25.2,19.4,54.1,28.9
	c44.4,14.5,102.2,30.2,116.1,54.6c0.3,0.6,0.6,1.2,0.9,1.8c19.8,41.6,55.9,85.3,69.1,131c12.1,42-47.8,40.2-62.9,150.3
	c-0.1,0.8-0.2,1.7-0.3,2.5c-1.2,9.3-2.1,19.3-2.6,30.2c-0.8,16.9,0.4,31.7,3.3,44.8c11.3,52,48.5,76.5,90.7,89.6
	c37.6,11.7,79.3,14.3,110.1,19.5c73.5,12.4,35.2,59.6,58.7,90.8c0.2,0.2,0.4,0.5,0.6,0.7c18.5,23.4,32.3-2.2,58.8,9.6
	c8.9,4,19.2,12.2,31.7,27.9c21.2,26.8,30,71,31.6,113.1c2.2,55.8-8.1,108-18.5,111.5c-18.1,6.2-24.7-25-65.8,45.8
	c-12.1,20.8-13.8,35.9-9.8,47.3c1.8,5.2,4.9,9.7,8.6,13.5c8.4,8.7,20.6,14.6,31.4,20c9.7,4.8,18.4,9.2,22.4,14.9
	c12.8,18-3.9,22-14,44.3c-1.6,3.5-3,7.4-4.1,11.9c-0.6,2.4-0.8,4.9-0.8,7.4c0.9,32.4,50.8,73.6,17.2,98.7
	c-27.3,20.4-64.1-42.2-90.3-84.8c-1.7-2.8-3.3-5.4-4.9-8c-4.5-7.2-8.7-13.6-12.3-18.4c-1.5-2.1-3-3.8-4.4-5.3
	c-7.6-8.2-23.3-2.7-42.4,8.5c-10.6,6.2-22.4,14.2-34.3,22.6c-16,11.1-32.5,22.8-47.5,31.6c-14.4,8.5-27.3,14.2-37.1,14.2
	c-19.9,0-44-33.6-66.1-67.5c-5.6-8.6-11-17.1-16.1-25.2c-14.6-22.8-27.4-41.5-36-44.4c-1.3-0.4-2.5-0.5-3.6-0.2
	c-21.4,6.2-1.6-27-37.9-33.3c-36.2-6.2-37.8,164.3-51,218.4c-9.1,37.5-41.2,82-61.6,112c-0.1,0.2-0.3,0.4-0.4,0.6
	c-8.8,13-15.4,23.2-16.9,28.8c-4.9,18.7-23,77-28,106.1c-2.6,15.6,8.3,31.7,17.1,48.8c0.9,1.8,1.8,3.6,2.7,5.4
	c6.3,13.2,10.3,27,4.9,41.6c-2,5.4-4.8,9.7-8.1,13.1c-5,5.1-11.1,8-17.6,9.2C2947,1870.5,2933.8,1866.7,2924.4,1859.3z"/>
<path class="st5" d="M1986.9,394.1c-1.6,8.9-2.7,20.5,0.4,35.2c0,0.2,0.1,0.3,0.1,0.5c0.2-0.2,0.3-0.4,0.5-0.6
	c8.3-9.8,14.5-19,14.1-25.7C2001.8,398.7,1995.8,395.9,1986.9,394.1z M1441.4,1439.6c-5.8,4.8-9.5,10.8-11.6,17.5
	c6.1-5.4,13.5-11,21-16.3c6.8-4.8,13.6-9.4,19.7-13.6c-8.8,1-18.1,3.8-28,11.5C1442.1,1439.1,1441.8,1439.3,1441.4,1439.6z
	 M353.7-114.5v2050.4h5200.6V-114.5H353.7z M3077.4,1901c-14.1,37.8-63.3,26.7-75.6,0c-2.2-4.7-4.5-11.3-6.9-18.9
	c-0.9-2.9-1.9-6-2.8-9.2c-5.1-16.9-10.4-37.2-15.7-54.6c-0.6-1.8-1.1-3.6-1.7-5.4c-5.4-17.3-10.6-30.9-15.1-34.1
	c-12.3-8.9-10.6-75.6-29.9-113.3c-8-15.6-25-17.6-43.1-16.3c-17.3,1.1-35.7,5.1-48.4,3c-6.3-1.1-11.2-3.7-13.9-8.8
	c-2.5-4.8-6.1-10.3-10.6-16.2c-7.4-9.8-17.1-20.8-28.2-31.6c-19.4-18.9-42.9-37.2-64.9-47.7c-20.2-9.6-24.7-49.2-27.7-89.4
	c-0.5-6.6-1-13.2-1.4-19.7c-0.3-3.6-0.5-7.2-0.8-10.7c-0.1-1.8-0.3-3.7-0.5-5.5c-1.8-19-4.2-35.9-9.3-46.9
	c-2.8-6.2-6.5-10.5-11.2-12.4c-7.7-2.9-14.5-1.1-20.7,4c-7.5,6.2-14,17.1-19.5,29.9c-10.5,24.2-17.8,54.7-23.1,70.6
	c-10.6,31.1-52.7,35.6-80.9,48.9c-28.1,13.3,14.1,37.8,24.6,91.1c10.3,52-37.9,44.9-59.9,77.4c-0.6,0.8-1.1,1.7-1.7,2.6
	c-19.1,32.3-41.2,77.3-59.6,83.7c-1.9,0.7-3.7,0.9-5.5,0.7c-11.7-1.3-24.8,20.2-40.6,40.8c-1.4,1.8-2.8,3.6-4.2,5.4
	c-9.2,11.4-19.4,21.8-30.7,27.1c-23.4,10.9-63.4-9.9-95.4-27.1c-1.6-0.9-3.1-1.7-4.7-2.5c-1.8-1-3.6-1.9-5.3-2.8
	c-9.6-5.1-18.1-9.4-24.7-11.9c-8.8-3.2-20.5,2.4-33.7,11.9c-2.3,1.7-4.7,3.5-7.2,5.4c-17.8,13.8-37.4,32.5-55.6,44.6
	c-6.7,4.5-13.2,8-19.3,10.1c-5.8,2-11.2,2.6-16.1,1.4c-36.9-8.9-131.8,48.9-149.4,44.4c-10.7-2.7-27.2-19.3-40-45.8
	c-7.4-15.2-13.6-33.7-16.8-54.6c-0.3-1.8-0.5-3.6-0.8-5.4c-0.1-1-0.2-2-0.4-3c-7-62.2-63.3-80-70.3-115.6
	c-7-35.6-35.2-11.1-56.2-42.2c-21.1-31.1,28.1-91.1,31.6-113.3c3.5-22.2-38.7-42.2-33.4-95.6c1.4-14.3-2.1-26.2-9.1-36
	c-19.1-26.6-64-37.3-105.2-37.3c-4.5,0-8.9,0.2-13.2,0.5c-1.3,0.1-2.6,0.2-3.8,0.3c-0.5,0.1-1,0.1-1.5,0.2
	c-16.4,1.7-30.5,5.7-42.8,10.9c-14.7,6.3-26.9,14.5-37.6,23.1c-4.6,3.7-8.9,7.4-13,11.1c-0.2,0.2-0.4,0.4-0.7,0.6
	c-5.1,4.6-10.1,7.2-15.2,8.6h0c-5.8,1.6-11.6,1.8-17.6,1.7c-6.4-0.1-13.1-0.4-20,0.3c-8.8,1-18.1,3.8-28,11.5
	c-0.4,0.3-0.7,0.6-1.1,0.8c-5.8,4.8-9.5,10.8-11.6,17.5c0,0,0,0,0,0c-3.6,11.4-2.9,24.9-0.4,38.7c3.8,20.5,11.5,41.4,14.9,56.3
	c5.7,25.1-41.4,56-69.9,76.4c-6.8,4.9-12.5,9.1-16.3,12.5c-19.3,17.8-100.2,22.2-114.3-13.3c-14.1-35.5,89.6-97.8,87.9-115.5
	c-1.8-17.8,29.9-48.9,29.9-71.1s-40.4-46.7-43.9-71.1c-3.5-24.4,17.6-35.5,29.9-62.2c12.3-26.7-5.3-40-5.3-66.7
	c0-26.7,154.7-157.8,198.6-184.4c44-26.7-51-182.2,28.1-186.7c79.1-4.5,109-75.5,116-97.8c7-22.2,68.6-64.4,102-91.1
	c33.4-26.7,49.2-75.6,54.5-91.1c2.6-7.7,17.3-20.3,31.4-33.2c4.2-3.9,8.4-7.8,12.2-11.6c9.2-9.2,16.1-17.8,16.1-24.1
	c0-7-14.2-9.5-31.6-11c-5.4-0.4-11.2-0.8-16.9-1.1c-22.5-1.3-44.7-2.6-46.4-10.1c-3.5-15.6,43.9-64.4,54.5-73.3
	c9.2-7.7-0.2-32.2-1.7-44.3c-0.2-1.9-0.3-3.4-0.1-4.6c1.8-8.9,47.5-2.2,47.5-2.2s1.3,1.1,5.2,2.2c7,1.9,22.2,3.6,52.8-2.2
	c24.3-4.6,26.9-2.7,25.1,6.8c-0.6,3.3-1.8,7.6-2.8,13c-1.6,8.9-2.7,20.5,0.4,35.2c0,0.2,0.1,0.3,0.1,0.5c0,0,0,0,0,0
	c0.7,3.5,1.8,6.3,3.2,8.7c2.2,3.8,5.2,6.4,8.7,8c0.3,0.1,0.6,0.3,0.9,0.4c26,10.2,80.6-28.3,96.2-10.4c19.3,22.2,58-60,68.6-44.4
	c3.2,4.8,9.9-0.7,18.8-11c11.9-13.9,27.8-36.7,44.1-54.6c10.8-12,21.9-21.8,32.1-25.5c24.9-9,22.6,4.3,23.9,25.5
	c0.6,10.2,2,22.2,7.8,34.5c12.2,26.2,26.9-8.5,38.9-34.5c5.3-11.5,10.1-21.2,13.8-23.3c8.6-4.7,18.9,5.9,37,23.3
	c7.8,7.5,17,16.2,28.1,25.6c25.1,21.1,56.6-9,79.2-25.6c10.7-7.9,19.4-12.7,24.5-7.7c8.2,8.1,32.2-0.1,54.8-6.6
	c20.8-6,40.4-10.7,45.4,0c8.5,17.8,45.1,8.5,66.6,14.4c5.3,1.5,9.7,3.8,12.5,7.8c4.9,7,13.1,2.3,22.1-7.8c3.1-3.4,6.3-7.5,9.4-12
	c4-5.6,8-11.7,11.8-18c9.9-16.1,18.7-32.9,23.4-42.2c12.3-24.4-59.8-2.2-51-33.3c3.4-12.2,2-18.6-2-22.5c-0.1-0.1-0.1-0.1-0.2-0.2
	c-6.3-6-18.9-6.2-29.5-12.9c-12.3-7.8,29.8-38.5,66.4-60c9.8-5.8,19.2-10.9,27.1-14.7c4.6-2.2,8.7-4,12-5.3
	c10.3-3.9,21.3,5.4,32.4,20c20.9,27.6,42.3,74.4,60.7,88.9c28.1,22.2,5.3-26.7,19.3-46.7c14.1-20,26.4,15.5,42.2,60
	c15.8,44.4,63.3-22.2,70.3-6.7c7,15.5,51-11.1,72.1-22.2c21.1-11.1,35.2,4.4,40.4,33.3c5.3,28.9,161.7,46.7,182.8,91.1
	c0.5,1.1,1.1,2.2,1.6,3.3c8.8,17.9,20.2,36.1,31.6,54.6c5.8,9.5,11.6,19.1,17.1,28.8c9.8,17.5,18.4,35.2,23.5,53.3
	c10.2,35.4-27.5,41.7-51.7,100.4c-9.3,22.5-16.6,52.7-18.6,95.1c0,0.5-0.1,1.1-0.1,1.6c-3.1,77.5,33.3,114.8,80.1,134.6
	c44.9,19,99.3,21.8,137.9,28.2c79.1,13.3,36.9,64.5,63.3,97.8c26.4,33.3,43.9-26.7,96.7,40c28.3,35.8,35.8,100.3,33.8,153.5
	c-1.1,29.1-5.1,54.7-10.2,70.4c-2.9,9.2-6.2,14.9-9.5,16.1c-15.2,5.2-22.8-14.3-46.8,14.1c-3.4,4.1-7.2,9.1-11.4,15.4
	c-3.7,5.5-7.7,11.9-12.1,19.4c-43.9,75.6,40.4,80,56.2,102.2c15.8,22.2-10.5,24.4-19.3,60c0,0,0,0.1,0,0.1c-0.1,0.5-0.2,1-0.3,1.5
	c-3,16.1,8.4,34.8,18,53.1c11.5,21.9,20.7,43.1-0.1,58.6c-35.4,26.5-85.6-77.6-112.7-115.8c-2.5-3.5-4.8-6.4-6.8-8.7
	c-4.9-5.3-13-5.2-23.1-1.7c-9.5,3.3-20.7,9.7-32.9,17.4c-3.4,2.1-6.8,4.4-10.3,6.8c-37.8,25.4-81.3,59.7-106,59.7
	c-12.2,0-25.9-11.8-39.7-28.7c-16.9-20.6-34.1-48.7-49.3-72.3c-17.4-27-32.2-48.2-41-45.7c-5.2,1.5-8.1,0.8-10-1.2
	c-5.3-5.7-2.2-22.1-18.1-30.4c-3.2-1.7-7.3-3.1-12.4-3.9c-1.4-0.2-2.8-0.2-4.1,0c-8.6,1.6-15.1,13.2-20.4,30.6
	c-16.1,53.2-19.8,160.7-30,202.7c-14.1,57.8-79.1,131.1-84.4,151.1c-1.1,4.4-3,10.7-5.2,18.4c-1.8,6.2-3.9,13.3-6,20.8
	c-7.2,25.3-15.5,55.4-18.7,74.2c-0.8,4.7-0.4,9.4,0.7,14.1c0.4,1.8,0.9,3.6,1.6,5.4c5.9,17.3,20.1,35.4,25,54.6
	C3080.7,1882,3081,1891.4,3077.4,1901z"/>
<path class="st6" d="M1651.5,1377.9c-0.3-0.7-0.6-1.4-0.8-2c-1.2,0.9-2.5,1.8-3.7,2.7c-9.4,7.3-17.5,15.3-24.8,23.1
	c-21,22.4-44.5-0.6-71.5,20.8c27.3-7,91.2-7.5,99.5-21.2C1655.9,1391.8,1654.3,1384.9,1651.5,1377.9z M1576.7,1478.1
	c0-13.4-29-28-36.7-42.8c-11.4,23.6,1.5,61.4,10.6,90.1v-0.1C1549.2,1513.5,1576.7,1492.8,1576.7,1478.1z M1651.5,1377.9
	c-0.3-0.7-0.6-1.4-0.8-2c-1.2,0.9-2.5,1.8-3.7,2.7c-9.4,7.3-17.5,15.3-24.8,23.1c-21,22.4-44.5-0.6-71.5,20.8
	c27.3-7,91.2-7.5,99.5-21.2C1655.9,1391.8,1654.3,1384.9,1651.5,1377.9z M1540.1,1435.3c-11.4,23.6,1.5,61.4,10.6,90.1v-0.1
	c-1.5-11.8,26-32.5,26-47.3C1576.7,1464.7,1547.7,1450,1540.1,1435.3z M5312.1-51.5l-8-145.5H-3.7v318.1h-8.4v1754.9h0.8v60h7.6v63
	h5429.1L5312.1-51.5z M2629.8,116.2c-15.8-10.7,54.4-62.9,86.8-80c2.7-1.4,5.1-2.6,7.2-3.5c4.8-2.1,10.1-0.5,15.5,3.5
	c18.3,13.6,39.2,55.6,58,84.9c7,10.9,13.8,20.1,19.9,25.3c19.5,16.4,13.1-4.4,11.9-25.3c-0.5-8.7-0.1-17.3,3.4-23.4
	c8.3-14.4,17.3-1.3,27.7,23.4c4.7,11.2,9.8,24.8,15.2,39.2c17.4,46.4,57.9-23.2,65.4-7s47-11.6,66.1-23.2
	c19.1-11.6,33.1,4.6,39.7,34.8c1.9,8.5,14.8,16,33,23.5c46.5,19.2,127.3,38.2,143.3,71.6c19.9,41.3,52.9,84.5,71.1,129.5
	c2.2,5.5,4.3,11.1,6,16.7c5,16,1.3,26.4-6.2,37.9c-5.2,8.2-12.3,17-19.4,28.8c-14.9,24.8-30,63.1-28.9,137.4
	c0.1,5.6,0.3,11,0.7,16.3c11,143.7,140.5,142,212.6,155.4c74.8,13.9,38.2,67.3,64.8,102.1c26.6,34.8,39.6-27.8,92.7,41.8
	c53.2,69.6,44.7,243.6,27,250.6c-1.4,0.5-2.7,0.8-4,0.9c-8.6,0.7-15.5-6.6-25.9,0.1c-8.1,5.1-18.2,18.4-33,50.1
	c-10.2,21.9-11.5,38-7.6,50.5c6.1,19.8,25,30.1,41.5,39c10.6,5.7,20.1,10.7,24.6,17.3c16.1,23.2-8.5,25.5-14.6,62.7
	c-6.2,37.1,57.5,88.2,23,118.3c-16.7,14.6-39.4-8.8-61.1-40.1c-0.9-1.4-1.9-2.8-2.8-4.2c0,0,0,0,0,0c-22.1-32.6-42.9-71.9-55.1-85.7
	c-7.9-9-22.9-3.2-40.8,8.8c-13.8,9.2-29.4,22.2-44.9,34.8c-14.2,11.5-28.4,22.8-41.2,30.7c-0.2,0.2-0.5,0.3-0.7,0.4
	c-10.9,6.8-20.8,11.1-28.9,11.1c-5.5,0-11.5-2.9-17.8-7.9c-14.9-11.8-31.5-35.2-47.5-59.9c-27.5-42.5-53-88.7-64.6-85.4
	c-0.1,0-0.1,0-0.2,0c-1.6,0.5-2.9,0.8-4.1,0.8c-14.6,0.7-1.9-31.5-35.8-38c-12.4-2.3-19.5,17.8-24,47.8c-3,20-4.7,44.5-6,69.6
	c-0.5,9.4-0.9,18.9-1.3,28.3c-0.5,12.9-1,25.6-1.5,37.6c-1.1,24.5-2.4,46.1-4.7,60.3c-9.8,60.3-66.4,136.9-70.2,157.8
	s-18.3,85.8-21.4,118.3c-2.3,23.6,20.6,48.3,29.1,75.2c0.6,1.8,1.1,3.6,1.5,5.4c2,8.5,2.4,17.2-0.1,26.2c-11,39.4-57.7,27.8-70.7,0
	c-2.9-6.2-6.2-15.4-9.7-26.2c-0.6-1.8-1.1-3.6-1.7-5.4c-9.8-30.8-21.1-71-29.8-88.3c-1.9-3.8-3.7-6.5-5.3-7.8
	c-8.8-6.8-12.4-46.2-21.6-82.2c0,0,0,0,0,0c-0.5-2-1.1-4-1.6-6c-1-3.6-2.1-7.2-3.2-10.6c-2.3-7-5-13.6-8-19.5
	c-8.7-17-25.7-18.5-43.4-16.9c-23.5,2.1-48.2,9.6-56.6-6.3c-8.5-16.1-27.9-40-50.6-61.4c-4.8-4.5-9.7-8.9-14.7-13
	c-3.5-2.9-7.1-5.7-10.6-8.4c-0.4-0.3-0.8-0.6-1.1-0.9c-7.7-5.7-15.4-10.8-23-14.8c-0.8-0.5-1.6-0.9-2.4-1.3
	c-32.7-16.8-28.7-122.3-43.5-170.1c-3.6-11.6-8.2-19.8-14.8-22.5c-33.6-13.9-45.1,76.6-53.2,109.1c-3.7,14.7-13.7,23.7-26,30.5
	c-0.8,0.4-1.6,0.9-2.4,1.3c-8.7,4.5-18.3,8-27.5,11.6c-0.1,0-0.2,0.1-0.3,0.1c-5.9,2.3-11.5,4.8-16.6,7.5
	c-25.5,13.9,15.3,39.4,28.3,95.1c1.7,7.2,2.3,13.4,2.2,18.7c-1.2,35.4-39.7,32.6-55.1,64.9c-17.7,37.1-37.8,90.5-56,88.2
	c-18.2-2.3-36.1,60.3-66.5,76.6c-16.1,8.6-42.1-1.7-67.1-15.1c-13.3-7.1-26.4-15-37.6-21.4c-7.5-4.2-14.1-7.8-19.5-10
	c-20.1-8.1-53.3,37.4-83.5,62.1c-5.4,4.4-10.7,8.2-15.8,10.8c-7.1,3.7-13.8,5.3-19.8,3.7c-1.6-0.4-3.2-0.7-5-0.8
	c-6.1-0.5-13.2,0.5-21,2.5c-36,9.4-85.7,40.6-105.4,44.6c-2.4,0.5-4.3,0.6-5.7,0.2c-7.6-2.1-18.7-12.3-29.4-28.9
	c-3.1-4.8-6.1-10-9.1-15.8c-0.9-1.7-1.8-3.5-2.7-5.4c-8.3-17.6-15.5-39.1-19.4-63.6c-5.1-32.7-21.3-53.7-37.2-71.2
	c-12.5-13.7-24.7-25.3-31.4-38.8c-1.7-3.4-3-7-3.9-10.7c-3.4-14.8-9.5-19.6-16.8-22.2c-11.1-3.8-25.3-2.4-38.2-21.9
	c-6.2-9.4-7.1-21.3-5.1-34.1c4.8-31.4,26.8-67.8,28.2-84.3c2-22.9-37.6-43.6-36.8-97.7c0-0.7,0-1.4,0-2.1
	c1.8-52.9-52.7-74.4-103.3-76.4c-2.6-0.1-5.2-0.2-7.8-0.2c-32.7,0-56,9.9-74.1,22.9c-1.2,0.9-2.5,1.8-3.7,2.7
	c-9.4,7.3-17.5,15.3-24.8,23.1c-21,22.4-44.5-0.6-71.5,20.8c-1,0.8-1.9,1.6-2.9,2.4c-2.9,2.6-5.2,5.6-7,8.8
	c-0.2,0.4-0.5,0.9-0.7,1.3c-0.1,0.1-0.1,0.2-0.1,0.3c-11.4,23.6,1.5,61.4,10.6,90.1c2.1,6.5,4,12.5,5.3,17.8
	c6.2,24.1-28.9,53.3-54.5,74.4c-8.9,7.3-16.6,13.6-21,18.4c-13.8,15.1-66,20.9-93.4,2.8c-6.4-4.2-11.4-9.8-14.3-16.8
	c-6.5-15.8,6.8-36.7,23.9-56.9c2-2.4,4.1-4.8,6.3-7.2c21.9-24.5,46.8-46.9,45.4-56.6c-0.9-6.2,1.6-13.9,5.3-22.4
	c1.6-3.6,3.4-7.4,5.2-11.2c0.1-0.2,0.2-0.4,0.3-0.5c6.6-13.7,13.7-28.2,13.1-40.2c-1.1-19.7-29.5-41-40.9-62.6
	c-2.1-3.9-3.6-7.7-4.3-11.6c-4.7-25.5,14.4-37.1,24.4-65c10-27.8-7.2-41.8-8.8-69.6c-0.7-13,28.7-49.7,64.3-87.9
	c0.9-1,1.8-1.9,2.7-2.9c40.2-42.9,87.5-87.2,108.1-101.7c20.3-14.3,4.4-64.1-5.9-109.8c-2.1-9.5-4-18.8-5.3-27.6
	c-4.5-31.2-1.3-55.8,26.7-57.5c18.9-1.2,34.5-6.9,47.4-15.2c15.7-10.1,27.3-24,35.8-38c11.7-19.3,17.5-38.9,19.8-48.9
	c5.3-23.2,60.4-67.3,90.1-95.1c3-2.8,5.8-5.8,8.4-9c3.3-4,6.3-8.3,9.1-12.7c17.2-27.4,25.1-60.8,28.2-73.4
	c2-8.1,15.1-21.3,27.6-34.8c3.3-3.6,6.6-7.2,9.7-10.8c0.2-0.2,0.3-0.4,0.5-0.6c8.3-9.8,14.5-19,14.1-25.7c-0.3-4.9-6.3-7.7-15.1-9.4
	c-24.3-4.8-69.6-1.9-74.6-13c-0.1-0.3-0.2-0.5-0.3-0.8c-0.3-1.1-0.4-2.4-0.2-3.8c1-11.8,15.1-33.2,27.9-50
	c8.1-10.6,15.7-19.4,19-22.8c9.4-9.3-5.6-41.8-4.5-51c1.1-9.3,44.3-2.3,44.3-2.3s10.4,9.3,54.3,0c43.9-9.3,11.9,7,24.6,58
	c2.5,10.2,7.4,15.7,13.7,18.1c5.9,2.3,13.2,1.8,20.9,0c25.1-5.8,55.9-25.3,67.7-11.2c19.4,23.2,50.8-62.6,61.6-46.4
	c10.8,16.2,49.8-81.2,83.5-95.1s14.4,23.2,33,62.6c18.6,39.4,34.9-53.4,46-60.3c11.1-7,27.3,18.6,63.7,51
	c36.3,32.5,79.4-51,95.1-34.8c15.7,16.2,82.2-30.2,93.3-7c7.2,15,30.6,11.6,50.1,12.9c0.1,0,0.3,0,0.4,0c10.5,0.8,19.8,3,24.8,10.2
	c7.2,10.5,19.2-4.2,30.6-24.5c11.3-20.1,22-45.8,27.1-58.7c0-0.1,0.1-0.2,0.1-0.3c4.5-11.5-6.3-13.1-19.1-14.4
	c-15.6-1.5-34.1-2.5-30.6-20.4c5.2-26.5-7.8-26.8-22.1-32.3C2636.2,119.8,2632.9,118.3,2629.8,116.2z M1576.7,1478.1
	c0-13.4-29-28-36.7-42.8c-11.4,23.6,1.5,61.4,10.6,90.1v-0.1C1549.2,1513.5,1576.7,1492.8,1576.7,1478.1z M1651.5,1377.9
	c-0.3-0.7-0.6-1.4-0.8-2c-1.2,0.9-2.5,1.8-3.7,2.7c-9.4,7.3-17.5,15.3-24.8,23.1c-21,22.4-44.5-0.6-71.5,20.8
	c27.3-7,91.2-7.5,99.5-21.2C1655.9,1391.8,1654.3,1384.9,1651.5,1377.9z"/>
<polygon class="st6" points="-3.7,121.1 -3.7,1935.9 -11.4,1935.9 -11.4,1875.9 -12.1,1875.9 -12.1,121.1 "/>
</svg>
